<svg xmlns="http://www.w3.org/2000/svg" xmlns:xlink="http://www.w3.org/1999/xlink" width="379" zoomAndPan="magnify" viewBox="0 0 284.25 435.749987" height="581" preserveAspectRatio="xMidYMid meet" version="1.0"><defs><clipPath id="646c660d78"><path d="M 0.0078125 0.449219 L 282.761719 0.449219 L 282.761719 435 L 0.0078125 435 Z M 0.0078125 0.449219 " clip-rule="nonzero"/></clipPath><clipPath id="852e982091"><path d="M 22.449219 0.449219 L 260.320312 0.449219 C 272.714844 0.449219 282.761719 10.496094 282.761719 22.890625 L 282.761719 412.609375 C 282.761719 425.003906 272.714844 435.050781 260.320312 435.050781 L 22.449219 435.050781 C 10.054688 435.050781 0.0078125 425.003906 0.0078125 412.609375 L 0.0078125 22.890625 C 0.0078125 10.496094 10.054688 0.449219 22.449219 0.449219 Z M 22.449219 0.449219 " clip-rule="nonzero"/></clipPath><clipPath id="0188127a0e"><path d="M 48.628906 350.523438 L 239.375 350.523438 L 239.375 435.050781 L 48.628906 435.050781 Z M 48.628906 350.523438 " clip-rule="nonzero"/></clipPath><clipPath id="ce10a485f6"><path d="M 53.867188 350.523438 L 234.140625 350.523438 C 235.527344 350.523438 236.859375 351.078125 237.84375 352.058594 C 238.824219 353.039062 239.375 354.371094 239.375 355.761719 L 239.375 429.816406 C 239.375 431.203125 238.824219 432.535156 237.84375 433.519531 C 236.859375 434.5 235.527344 435.050781 234.140625 435.050781 L 53.867188 435.050781 C 52.476562 435.050781 51.144531 434.5 50.164062 433.519531 C 49.179688 432.535156 48.628906 431.203125 48.628906 429.816406 L 48.628906 355.761719 C 48.628906 354.371094 49.179688 353.039062 50.164062 352.058594 C 51.144531 351.078125 52.476562 350.523438 53.867188 350.523438 Z M 53.867188 350.523438 " clip-rule="nonzero"/></clipPath><clipPath id="f40282df96"><path d="M 95.011719 391.628906 L 193 391.628906 L 193 435.015625 L 95.011719 435.015625 Z M 95.011719 391.628906 " clip-rule="nonzero"/></clipPath><clipPath id="6f49466dcd"><path d="M 100.246094 391.628906 L 187.757812 391.628906 C 189.148438 391.628906 190.480469 392.179688 191.460938 393.160156 C 192.445312 394.144531 192.996094 395.476562 192.996094 396.863281 L 192.996094 429.8125 C 192.996094 431.203125 192.445312 432.535156 191.460938 433.515625 C 190.480469 434.496094 189.148438 435.050781 187.757812 435.050781 L 100.246094 435.050781 C 98.859375 435.050781 97.527344 434.496094 96.542969 433.515625 C 95.5625 432.535156 95.011719 431.203125 95.011719 429.8125 L 95.011719 396.863281 C 95.011719 395.476562 95.5625 394.144531 96.542969 393.160156 C 97.527344 392.179688 98.859375 391.628906 100.246094 391.628906 Z M 100.246094 391.628906 " clip-rule="nonzero"/></clipPath><clipPath id="db194ba895"><path d="M 0 199 L 283.503906 199 L 283.503906 235 L 0 235 Z M 0 199 " clip-rule="nonzero"/></clipPath><clipPath id="a394a1d819"><path d="M 100.054688 174.925781 L 182.714844 174.925781 L 182.714844 257.582031 L 100.054688 257.582031 Z M 100.054688 174.925781 " clip-rule="nonzero"/></clipPath><clipPath id="230c218493"><path d="M 141.386719 174.925781 C 118.558594 174.925781 100.054688 193.429688 100.054688 216.253906 C 100.054688 239.078125 118.558594 257.582031 141.386719 257.582031 C 164.210938 257.582031 182.714844 239.078125 182.714844 216.253906 C 182.714844 193.429688 164.210938 174.925781 141.386719 174.925781 Z M 141.386719 174.925781 " clip-rule="nonzero"/></clipPath><clipPath id="1903a486df"><path d="M 100.644531 318.039062 L 182.171875 318.039062 L 182.171875 353.628906 L 100.644531 353.628906 Z M 100.644531 318.039062 " clip-rule="nonzero"/></clipPath><clipPath id="440efe5389"><path d="M 154.964844 320.175781 C 150.78125 318.886719 146.027344 318.039062 141.359375 318.039062 C 136.691406 318.039062 132.203125 318.765625 128.0625 320.054688 C 127.976562 320.09375 127.886719 320.09375 127.800781 320.136719 C 112.257812 325.296875 100.8125 338.929688 100.59375 353.628906 L 182.171875 353.628906 C 181.949219 338.851562 170.679688 325.21875 154.964844 320.175781 Z M 154.964844 320.175781 " clip-rule="nonzero"/></clipPath></defs><g clip-path="url(#646c660d78)"><g clip-path="url(#852e982091)"><path fill="#46b885" d="M 0.0078125 0.449219 L 282.761719 0.449219 L 282.761719 434.519531 L 0.0078125 434.519531 Z M 0.0078125 0.449219 " fill-opacity="1" fill-rule="nonzero"/></g></g><g clip-path="url(#0188127a0e)"><g clip-path="url(#ce10a485f6)"><path stroke-linecap="butt" transform="matrix(0.748026, 0, 0, 0.748026, 48.629627, 350.524979)" fill="none" stroke-linejoin="miter" d="M 7.00184 -0.00206064 L 248.000641 -0.00206064 C 249.854478 -0.00206064 251.635206 0.739474 252.951169 2.050215 C 254.26191 3.360956 254.998223 5.141684 254.998223 7.000743 L 254.998223 106.000857 C 254.998223 107.854694 254.26191 109.635422 252.951169 110.951385 C 251.635206 112.262126 249.854478 112.998439 248.000641 112.998439 L 7.00184 112.998439 C 5.142781 112.998439 3.362054 112.262126 2.051313 110.951385 C 0.735349 109.635422 -0.000963278 107.854694 -0.000963278 106.000857 L -0.000963278 7.000743 C -0.000963278 5.141684 0.735349 3.360956 2.051313 2.050215 C 3.362054 0.739474 5.142781 -0.00206064 7.00184 -0.00206064 Z M 7.00184 -0.00206064 " stroke="#ffffff" stroke-width="8" stroke-opacity="1" stroke-miterlimit="4"/></g></g><g clip-path="url(#f40282df96)"><g clip-path="url(#6f49466dcd)"><path stroke-linecap="butt" transform="matrix(0.748026, 0, 0, 0.748026, 95.01072, 391.628293)" fill="none" stroke-linejoin="miter" d="M 6.998916 0.000819584 L 123.989074 0.000819584 C 125.848133 0.000819584 127.628861 0.737132 128.939602 2.047873 C 130.255565 3.363836 130.991877 5.144564 130.991877 6.998401 L 130.991877 51.046608 C 130.991877 52.905667 130.255565 54.686394 128.939602 55.997135 C 127.628861 57.307876 125.848133 58.049411 123.989074 58.049411 L 6.998916 58.049411 C 5.145079 58.049411 3.364352 57.307876 2.048389 55.997135 C 0.737648 54.686394 0.00133503 52.905667 0.00133503 51.046608 L 0.00133503 6.998401 C 0.00133503 5.144564 0.737648 3.363836 2.048389 2.047873 C 3.364352 0.737132 5.145079 0.000819584 6.998916 0.000819584 Z M 6.998916 0.000819584 " stroke="#ffffff" stroke-width="8" stroke-opacity="1" stroke-miterlimit="4"/></g></g><g clip-path="url(#db194ba895)"><path stroke-linecap="butt" transform="matrix(0.748016, -0.00395776, 0.00395776, 0.748016, -0.000000084046, 216.254261)" fill="none" stroke-linejoin="miter" d="M -0.000135528 1.999608 L 378.005136 1.999553 " stroke="#ffffff" stroke-width="4" stroke-opacity="1" stroke-miterlimit="4"/></g><g clip-path="url(#a394a1d819)"><g clip-path="url(#230c218493)"><path stroke-linecap="butt" transform="matrix(0.748026, 0, 0, 0.748026, 100.056427, 174.925809)" fill="none" stroke-linejoin="miter" d="M 55.252456 -0.0000365609 C 24.734647 -0.0000365609 -0.00232504 24.736935 -0.00232504 55.249522 C -0.00232504 85.76211 24.734647 110.499081 55.252456 110.499081 C 85.765043 110.499081 110.502015 85.76211 110.502015 55.249522 C 110.502015 24.736935 85.765043 -0.0000365609 55.252456 -0.0000365609 Z M 55.252456 -0.0000365609 " stroke="#ffffff" stroke-width="8" stroke-opacity="1" stroke-miterlimit="4"/></g></g><g clip-path="url(#1903a486df)"><g clip-path="url(#440efe5389)"><path stroke-linecap="butt" transform="matrix(-0.748026, 0, 0, -0.748026, 182.17007, 353.628412)" fill="none" stroke-linejoin="miter" d="M 36.369346 44.721197 C 41.962189 46.444482 48.317455 47.577672 54.557836 47.577672 C 60.798216 47.577672 66.798382 46.606366 72.333782 44.883081 C 72.448668 44.83086 72.568775 44.83086 72.683661 44.773418 C 93.462301 37.875055 108.762983 19.650011 109.055419 -0.000660864 L -0.00241278 -0.000660864 C 0.295246 19.754452 15.360934 37.979497 36.369346 44.721197 Z M 36.369346 44.721197 " stroke="#ffffff" stroke-width="8" stroke-opacity="1" stroke-miterlimit="4"/></g></g></svg>